<svg width="46" height="46" viewBox="0 0 46 46" fill="none" xmlns="http://www.w3.org/2000/svg">
<rect width="46" height="46" rx="23" fill="#70A1E6"/>
<path fill-rule="evenodd" clip-rule="evenodd" d="M23 14.5208C18.3197 14.5208 14.5208 18.3196 14.5208 22.9999C14.5208 27.6802 18.3197 31.4791 23 31.4791C27.6803 31.4791 31.4792 27.6802 31.4792 22.9999C31.4792 18.3196 27.6803 14.5208 23 14.5208ZM13.1458 22.9999C13.1458 17.5602 17.5603 13.1458 23 13.1458C28.4397 13.1458 32.8542 17.5602 32.8542 22.9999C32.8542 28.4396 28.4397 32.8541 23 32.8541C17.5603 32.8541 13.1458 28.4396 13.1458 22.9999Z" fill="#F1F1F1"/>
<path fill-rule="evenodd" clip-rule="evenodd" d="M22.6609 18.1965C23.0406 18.1965 23.3484 18.5043 23.3484 18.884V22.6424C23.3484 22.7831 23.4021 22.9871 23.5216 23.1967C23.6411 23.4063 23.7893 23.5562 23.9097 23.6276L23.9115 23.6287L23.9115 23.6287L26.7532 25.3245C27.0792 25.5191 27.1858 25.9411 26.9912 26.2672C26.7966 26.5932 26.3746 26.6998 26.0485 26.5052L23.2087 24.8105C23.2084 24.8103 23.2081 24.8101 23.2077 24.8099C22.8336 24.5879 22.5329 24.2386 22.3272 23.8778C22.1213 23.5168 21.9734 23.0791 21.9734 22.6424V18.884C21.9734 18.5043 22.2812 18.1965 22.6609 18.1965Z" fill="#F1F1F1"/>
</svg>
